<svg id="Layer_1" data-name="Layer 1" xmlns="http://www.w3.org/2000/svg" viewBox="0 0 613.35 238.95"><defs><style>.cls-1{fill:#fff;}</style></defs><title>logo_papu</title><path class="cls-1" d="M5.19,75.54c-.83-12.87-1.66-32-2.49-50.23,0-5,0-10.79,1.66-16.19,2.49-9.55,12.45-12,20.75-5.4,5.4,4.15,7.89,10,10,14.94,8.3,18.26,9.55,19.09,24.08,4.15,27-26.57,55.62-12,69.73,7.47,8.3,12.45,12.45,26.15,11.62,41.09-1.66,14.94-5.81,29.06-11.62,43.17-5.81,12-15.36,19.92-29.06,22-10.38.83-19.09,4.15-29.47,2.49-6.64-.83-9.55,1.66-10.38,9.13,0,15.77,0,31.55-.83,47.73,0,8.3.83,16.6-.83,24.9-1.25,14.11-11.21,20.34-24.91,17.43C12.66,234.1,1.87,221.65.21,200.89c0-10.79-.83-22.41.83-33.62C5.19,139,3.53,109.58,5.19,75.54ZM91.11,49c-.83-1.25,0-4.57-.83-7.06A13.38,13.38,0,0,0,87,36.11c-2.49-1.66-5.4,0-7.06,1.66A82,82,0,0,0,58.32,67.24c-5.4,13.28-3.74,27.4,1.66,40.68,2.08,4.15,8.72,5,12,1.66,1.66-2.49,4.15-3.74,5.81-7.06C84.47,86.33,90.28,69.73,91.11,49Z"/><path class="cls-1" d="M267.52,61.43c-.83,21.58-1.25,37.36-2.08,53.13,0,4.57,0,9.13.42,13.28.42,5.4,1.25,11.21,7.06,13.28,7.06,2.49,11.21-2.91,14.53-7.47a223.8,223.8,0,0,0,13.7-20.75l7.06-11.21a17.68,17.68,0,0,1,4.57-5c2.49-2.08,5.4-2.91,8.3-1.66,3.32,1.66,4.57,4.57,3.74,7.47-5,19.09-13.7,36.53-29.89,49C276.24,166,254.24,165.61,238,149c-9.13-9.13-16.19-11.21-27.4-5.81-6.23,2.91-13.28,2.08-19.92.83-19.09-3.74-28.64-14.11-29.89-33.62a79.93,79.93,0,0,1,3.32-31.13c7.47-22.41,21.58-40.68,37.36-57.7a47.06,47.06,0,0,1,21.17-12C241,4.14,258.39,13.69,262.54,32,265.45,43.58,266.69,55.61,267.52,61.43Zm-39-13.7C215.64,63.5,204.84,80.93,199,101.27c-1.25,4.15-.83,8.72-.83,13.28,0,4.15,1.66,7.89,5.81,8.3a12.48,12.48,0,0,0,8.3-2.08c8.3-7.06,12.87-16.6,14.53-27,2.08-13.28,3.74-26.57,5.4-39.85C232.65,51.88,232.65,49.8,228.5,47.73Z"/><path class="cls-1" d="M304,75.54c-.83-12.87-1.66-32-2.49-50.23,0-5,0-10.79,1.66-16.19,2.49-9.55,12.45-12,20.75-5.4,5.4,4.15,7.89,10,10,14.94,8.3,18.26,9.55,19.09,24.07,4.15,27-26.57,55.62-12,69.73,7.47,8.3,12.45,12.45,26.15,11.62,41.09-1.66,14.94-5.81,29.06-11.62,43.17-5.81,12-15.36,19.92-29.06,22-10.38.83-19.09,4.15-29.47,2.49-6.64-.83-9.55,1.66-10.38,9.13,0,15.77,0,31.55-.83,47.73,0,8.3.83,16.6-.83,24.9-1.25,14.11-11.21,20.34-24.91,17.43-20.75-4.15-31.55-16.6-33.21-37.36,0-10.79-.83-22.41.83-33.62C304,139,302.39,109.58,304,75.54ZM390,49c-.83-1.25,0-4.57-.83-7.06a13.38,13.38,0,0,0-3.32-5.81c-2.49-1.66-5.4,0-7.06,1.66a82,82,0,0,0-21.58,29.47c-5.4,13.28-3.74,27.4,1.66,40.68,2.08,4.15,8.72,5,12,1.66,1.66-2.49,4.15-3.74,5.81-7.06C383.33,86.33,389.14,69.73,390,49Z"/><path class="cls-1" d="M453.06,117.88c.42-2.08.42-6.64,1.25-11.21,4.57-19.51,10.38-39,19.09-57.28,3.32-7.47,8.72-14.11,13.28-20.75a27.52,27.52,0,0,1,12-9.55c12-4.57,23.25,2.49,23.66,15.36.42,7.47-1.66,14.94-3.74,22-5,17-10,34.45-14.53,51.89-2.08,6.64-7.47,16.19,0,20.75,9.13,5.4,14.11-5.4,19.92-10.38,7.06-6.23,10.38-14.11,12.45-23.25a211,211,0,0,1,6.23-21.58c3.74-11.62,10.79-21.17,20.34-29.06,4.15-3.32,8.72-5.4,14.53-3.32C583,44,585.06,48.56,585.47,54c.83,10-.42,19.51-2.49,29.06-2.08,8.72-4.15,17.43-5.81,26.15a7.37,7.37,0,0,0,1.66,4.15c2.08,1.66,4.15.83,5.81-.83,4.15-4.15,7.89-8.72,12-13.28,2.08-2.08,4.57-4.15,7.06-5A6.77,6.77,0,0,1,610,95c2.91,1.66,4.15,4.57,2.91,7.47a23.92,23.92,0,0,1-5.4,9.55c-8.3,8.72-16.19,17.85-25.32,25.32-12.87,11.21-22.41,11.62-36.94,3.32a42.18,42.18,0,0,1-7.47-5.4c-3.32-2.49-7.06-1.66-10,.42-7.89,5.81-15.36,12-24.49,16.19-6.23,2.49-12.45,5-19.51,4.57C463.85,154.82,452.65,142,453.06,117.88Z"/></svg>