<?xml version="1.0" encoding="UTF-8" standalone="no"?>
<svg
   xmlns:osb="http://www.openswatchbook.org/uri/2009/osb"
   xmlns:dc="http://purl.org/dc/elements/1.1/"
   xmlns:cc="http://creativecommons.org/ns#"
   xmlns:rdf="http://www.w3.org/1999/02/22-rdf-syntax-ns#"
   xmlns:svg="http://www.w3.org/2000/svg"
   xmlns="http://www.w3.org/2000/svg"
   xmlns:sodipodi="http://sodipodi.sourceforge.net/DTD/sodipodi-0.dtd"
   xmlns:inkscape="http://www.inkscape.org/namespaces/inkscape"
   id="Layer_1"
   data-name="Layer 1"
   viewBox="0 0 613.35 238.95"
   version="1.1"
   inkscape:version="0.91 r13725"
   sodipodi:docname="logo_papu2.svg">
  <metadata
     id="metadata19">
    <rdf:RDF>
      <cc:Work
         rdf:about="">
        <dc:format>image/svg+xml</dc:format>
        <dc:type
           rdf:resource="http://purl.org/dc/dcmitype/StillImage" />
        <dc:title>logo_papu</dc:title>
      </cc:Work>
    </rdf:RDF>
  </metadata>
  <sodipodi:namedview
     pagecolor="#ffffff"
     bordercolor="#666666"
     borderopacity="1"
     objecttolerance="10"
     gridtolerance="10"
     guidetolerance="10"
     inkscape:pageopacity="0"
     inkscape:pageshadow="2"
     inkscape:window-width="1440"
     inkscape:window-height="837"
     id="namedview17"
     showgrid="false"
     inkscape:zoom="0.6374827"
     inkscape:cx="67.452812"
     inkscape:cy="116.33766"
     inkscape:window-x="-8"
     inkscape:window-y="-8"
     inkscape:window-maximized="1"
     inkscape:current-layer="Layer_1" />
  <defs
     id="defs3">
    <linearGradient
       id="linearGradient5626"
       osb:paint="solid">
      <stop
         style="stop-color:#000000;stop-opacity:1;"
         offset="0"
         id="stop5628" />
    </linearGradient>
    <style
       id="style5">.cls-1{fill:#fff;}</style>
  </defs>
  <title
     id="title7">logo_papu</title>
  <path
     class="cls-1"
     d="M 9.19,75.54 C 8.36,62.67 7.53,43.54 6.7,25.31 c 0,-5 0,-10.79 1.66,-16.19 2.49,-9.55 12.45,-12 20.75,-5.4 5.4,4.15 7.89,10 10,14.94 8.3,18.26 9.55,19.09 24.08,4.15 27,-26.57 55.62,-12 69.73,7.47 8.3,12.45 12.45,26.15 11.62,41.09 -1.66,14.94 -5.81,29.06 -11.62,43.17 -5.81,12 -15.36,19.92 -29.06,22 -10.38,0.83 -19.09,4.15 -29.47,2.49 -6.64,-0.83 -9.55,1.66 -10.38,9.13 0,15.77 0,31.55 -0.83,47.73 0,8.3 0.83,16.6 -0.83,24.9 C 61.1,234.9 51.14,241.13 37.44,238.22 16.66,234.1 5.87,221.65 4.21,200.89 4.21,190.1 3.38,178.48 5.04,167.27 9.19,139 7.53,109.58 9.19,75.54 Z M 95.11,49 c -0.83,-1.25 0,-4.57 -0.83,-7.06 A 13.38,13.38 0 0 0 91,36.11 c -2.49,-1.66 -5.4,0 -7.06,1.66 A 82,82 0 0 0 62.32,67.24 c -5.4,13.28 -3.74,27.4 1.66,40.68 2.08,4.15 8.72,5 12,1.66 1.66,-2.49 4.15,-3.74 5.81,-7.06 C 88.47,86.33 94.28,69.73 95.11,49 Z"
     id="path9"
     style="fill:#ffffff;stroke:#000000;stroke-width:1.8;stroke-linecap:butt;stroke-linejoin:round;stroke-miterlimit:4;stroke-dasharray:none;stroke-opacity:1"
     inkscape:connector-curvature="0" />
  <path
     style="stroke-width:1.8;stroke-miterlimit:4;stroke-dasharray:none;stroke:#000000;stroke-opacity:1;fill:#ffffff;stroke-linejoin:round;stroke-linecap:butt"
     d="M 313.86914 0.70898438 C 308.70596 0.65478517 304.23203 3.8496093 302.67578 9.8183594 C 301.01578 15.218359 301.01562 21.007812 301.01562 26.007812 C 301.84562 44.237812 302.67586 63.368281 303.50586 76.238281 C 302.92124 88.226443 302.75166 99.617628 302.5918 110.61133 L 301.15039 112.90039 A 223.8 223.8 0 0 1 287.44922 133.65039 C 284.12922 138.21039 279.97992 143.60914 272.91992 141.11914 C 267.10992 139.04914 266.27938 133.23984 265.85938 127.83984 C 265.43937 123.68984 265.43945 119.13055 265.43945 114.56055 C 266.26945 98.790547 266.68953 83.009687 267.51953 61.429688 C 266.68953 55.609687 265.44906 43.58 262.53906 32 C 258.38906 13.69 241.00062 4.1403125 222.64062 9.5703125 A 47.06 47.06 0 0 0 201.4707 21.570312 C 185.6907 38.590313 171.57937 56.859531 164.10938 79.269531 A 79.93 79.93 0 0 0 160.78906 110.40039 C 162.03906 129.91039 171.58969 140.27953 190.67969 144.01953 C 197.31969 145.26953 204.36961 146.09945 210.59961 143.18945 C 221.80961 137.78945 228.87 139.87 238 149 C 254.24 165.61 276.23969 166 294.92969 151.5 C 297.30497 149.67049 299.5016 147.72243 301.56641 145.68945 C 301.11242 153.23227 300.43119 160.6409 299.35547 167.96875 C 297.69547 179.17875 298.52539 190.79789 298.52539 201.58789 C 300.18539 222.34789 310.97586 234.79797 331.75586 238.91797 C 345.45586 241.82797 355.41602 235.59828 356.66602 221.48828 C 358.32602 213.18828 357.49609 204.88789 357.49609 196.58789 C 358.32609 180.40789 358.32617 164.62742 358.32617 148.85742 C 359.15617 141.38742 362.06703 138.89852 368.70703 139.72852 C 379.08703 141.38852 387.79578 138.06828 398.17578 137.23828 C 411.87578 135.15828 421.42633 127.23828 427.23633 115.23828 C 433.04633 101.12829 437.19547 87.008359 438.85547 72.068359 C 439.68547 57.128359 435.53633 43.428516 427.23633 30.978516 C 413.12633 11.508516 384.50586 -3.0621877 357.50586 23.507812 C 342.97586 38.447812 341.72578 37.617422 333.42578 19.357422 C 331.31578 14.417422 328.82578 8.5679689 323.42578 4.4179688 C 320.31328 1.9429687 316.96705 0.7415039 313.86914 0.70898438 z M 382.91016 36.123047 C 383.71935 36.094678 384.53828 36.289844 385.31641 36.808594 A 13.38 13.38 0 0 1 388.5957 42.638672 C 389.4257 45.128672 388.59578 48.449219 389.42578 49.699219 C 388.59578 70.429219 382.78547 87.028758 376.10547 103.21875 C 374.44547 106.53875 371.95688 107.78734 370.29688 110.27734 C 367.01688 113.61734 360.37687 112.76914 358.29688 108.61914 C 352.89687 95.339149 351.23672 81.2175 356.63672 67.9375 A 82 82 0 0 1 378.25586 38.46875 C 379.39711 37.3275 381.12993 36.185459 382.91016 36.123047 z M 228.51367 47.738281 C 232.64812 49.805717 232.65039 51.882474 232.21094 53.919922 C 230.55094 67.199922 228.89055 80.489531 226.81055 93.769531 C 225.15055 104.16953 220.5793 113.70953 212.2793 120.76953 A 12.48 12.48 0 0 1 203.98047 122.84961 C 199.83047 122.43961 198.16992 118.70078 198.16992 114.55078 C 198.16992 109.99078 197.75 105.41953 199 101.26953 C 204.83907 80.932782 215.6364 63.506291 228.51367 47.738281 z "
     id="path11" />
  <path
     class="cls-1"
     d="M453.06,117.88c.42-2.08.42-6.64,1.25-11.21,4.57-19.51,10.38-39,19.09-57.28,3.32-7.47,8.72-14.11,13.28-20.75a27.52,27.52,0,0,1,12-9.55c12-4.57,23.25,2.49,23.66,15.36.42,7.47-1.66,14.94-3.74,22-5,17-10,34.45-14.53,51.89-2.08,6.64-7.47,16.19,0,20.75,9.13,5.4,14.11-5.4,19.92-10.38,7.06-6.23,10.38-14.11,12.45-23.25a211,211,0,0,1,6.23-21.58c3.74-11.62,10.79-21.17,20.34-29.06,4.15-3.32,8.72-5.4,14.53-3.32C583,44,585.06,48.56,585.47,54c.83,10-.42,19.51-2.49,29.06-2.08,8.72-4.15,17.43-5.81,26.15a7.37,7.37,0,0,0,1.66,4.15c2.08,1.66,4.15.83,5.81-.83,4.15-4.15,7.89-8.72,12-13.28,2.08-2.08,4.57-4.15,7.06-5A6.77,6.77,0,0,1,610,95c2.91,1.66,4.15,4.57,2.91,7.47a23.92,23.92,0,0,1-5.4,9.55c-8.3,8.72-16.19,17.85-25.32,25.32-12.87,11.21-22.41,11.62-36.94,3.32a42.18,42.18,0,0,1-7.47-5.4c-3.32-2.49-7.06-1.66-10,.42-7.89,5.81-15.36,12-24.49,16.19-6.23,2.49-12.45,5-19.51,4.57C463.85,154.82,452.65,142,453.06,117.88Z"
     id="path15"
     style="stroke-width:1.8;stroke-miterlimit:4;stroke-dasharray:none;stroke:#000000;stroke-opacity:1;stroke-linejoin:round;stroke-linecap:butt" />
</svg>
